<?xml version="1.0" encoding="UTF-8" standalone="no"?>
<!-- Created with Inkscape (http://www.inkscape.org/) -->

<svg
   version="1.1"
   id="svg2"
   width="2666.6667"
   height="2666.6667"
   viewBox="0 0 2666.6667 2666.6667"
   sodipodi:docname="Vector_Icon.eps"
   xmlns:inkscape="http://www.inkscape.org/namespaces/inkscape"
   xmlns:sodipodi="http://sodipodi.sourceforge.net/DTD/sodipodi-0.dtd"
   xmlns="http://www.w3.org/2000/svg"
   xmlns:svg="http://www.w3.org/2000/svg">
  <defs
     id="defs6">
    <clipPath
       clipPathUnits="userSpaceOnUse"
       id="clipPath18">
      <path
         d="m 6835.98,7245.2 857.19,634 c 489.33,361.3 978.66,722.6 1467.72,1086 l 2.35,-4.9 510.25,380.4 c 124.86,92.5 175.8,252.5 129.77,399.8 -112.44,352.4 -220.8,713.5 -321.93,1072.1 -122.12,435.1 -237.45,878 -342.51,1318.3 l 2671.98,-935.4 874.4,648.3 -4196.75,1469.1 c -127.66,44.7 -268.87,15.9 -369.16,-76 -99.06,-91.4 -139.67,-230.6 -105.23,-361.6 L 8794.95,9894.2 6231.22,7927.5 5726.08,7544.3 c -52.28,114.8 -100.26,233.3 -143.36,354.1 -1.44,4.5 -3.48,10.3 -4.93,14.9 -345.88,971.8 -375.02,2064.5 -8.62,3111.2 493.19,1408.8 1595.91,2433.6 2909.99,2883.2 20.73,7 42.37,13.7 63.11,20.6 942.1,307.5 1988.43,320.4 2994.33,-31.8 803.2,-281.1 1481,-760.3 1999.3,-1364.6 l 651.9,500.6 c -618.5,738.9 -1437.1,1324.3 -2409.5,1664.7 -1168.9,409.2 -2384.75,402.9 -3484.26,58 -3.35,-0.9 -7.02,-2.6 -10.37,-3.5 -1592.69,-516.8 -2935.1,-1744.3 -3529.39,-3442 -469.42,-1340.9 -391.81,-2742.3 116.31,-3962 47.72,-116.3 100.32,-230.2 157.17,-343.6 l -36.53,-28.9 -476.34,-364.8 -336.93,-254.1 c -113.55,-86.3 -251.36,-90.9 -347.07,-79.8 -398.26,47 -781.92,-186.7 -912.73,-554.5 -90.92,-256.9 -27.24,-481.4 41.3,-625.4 101.49,-212.3 290.54,-392.4 481.59,-459.2 25.35,-8.9 50.7,-17.8 85.15,-26.8 142.43,-31.6 280.51,-29.1 396.33,5.6 l 21.28,2.7 c 204.45,58.5 381.16,188.8 496.71,367.9 33.59,55.3 61.16,113.7 82.08,173.5 15.85,45.3 27.76,90.9 34.82,137.2 15.95,92 52.62,211.3 136.84,303.8 l 772.84,593.4 684.74,524.6 z"
         id="path16" />
    </clipPath>
    <linearGradient
       x1="0"
       y1="0"
       x2="1"
       y2="0"
       gradientUnits="userSpaceOnUse"
       gradientTransform="matrix(7866.49,-2753.74,-2753.74,-7866.49,4553.8,10737)"
       spreadMethod="pad"
       id="linearGradient28">
      <stop
         style="stop-opacity:1;stop-color:#0099ff"
         offset="0"
         id="stop20" />
      <stop
         style="stop-opacity:1;stop-color:#0099ff"
         offset="0.258474"
         id="stop22" />
      <stop
         style="stop-opacity:1;stop-color:#0099ff"
         offset="0.33685745"
         id="stop24" />
      <stop
         style="stop-opacity:1;stop-color:#0056ff"
         offset="1"
         id="stop26" />
    </linearGradient>
    <clipPath
       clipPathUnits="userSpaceOnUse"
       id="clipPath38">
      <path
         d="m 15310.4,7559.4 c 469.1,1340.1 390.9,2742.7 -116.6,3961.1 -49.4,119.7 -104.3,238.2 -162.1,353.9 l 453.4,347.8 c 0,0 -0.3,-0.9 0.6,-1.2 l 336.3,255.3 c 113.2,85.4 251.1,90 346.8,78.8 398.6,-46 781.9,186.8 912.7,554.6 90.9,256.9 28.5,482 -40.4,625 -102.4,212.7 -291.1,393.7 -481.3,460.2 -26.2,9.2 -51.6,18.1 -85.4,25.9 -142.5,31.5 -280.6,29.1 -396.9,-4.4 l -21.6,-3.6 c -204.5,-58.5 -380,-188.2 -496.8,-367.9 -32.6,-55.6 -60.2,-114.1 -80.8,-172.9 -15.9,-45.3 -28.1,-91.8 -36.1,-137.8 -14.7,-91.4 -51.7,-211.6 -136.8,-303.8 l -772.5,-592.5 -685.4,-526.4 -682.6,-524.4 -858.1,-633.7 c -489.6,-362.2 -979,-723.5 -1467.7,-1086 l -1.8,3.7 -511.1,-380.1 c -123.7,-91.9 -175.8,-252.5 -129.5,-398.9 112.1,-353.3 220.8,-713.5 321.9,-1072.1 122.7,-436.3 238.1,-879.2 343.1,-1319.5 L 8188.87,7636.2 7315.39,6987.5 11511.2,5518.8 c 128.6,-45.1 269.8,-16.2 369.2,76 99.3,92.3 140.6,230.3 106.1,361.3 l -780.6,2982 2562.5,1966.1 543.5,411.5 c 54.7,-119.8 105,-243.1 148.6,-368.2 351.6,-975.8 382.2,-2073 13.9,-3125.1 -213,-608.5 -539.7,-1145.4 -948,-1595.3 C 12298.1,4891.4 10346.7,4335 8528.68,4971.4 c -808.56,283 -1490.03,766.5 -2009.73,1375.4 l -685.96,-525.3 c 1.05,-1.2 2.16,-2.4 3.21,-3.7 l -24.35,-18.6 c 618.8,-738 1437.08,-1324.3 2410.43,-1665 2165.12,-758 4490.72,-87.8 5944.02,1513.3 493.3,537.5 888.2,1180.9 1144.1,1911.9 z"
         id="path36" />
    </clipPath>
    <linearGradient
       x1="0"
       y1="0"
       x2="1"
       y2="0"
       gradientUnits="userSpaceOnUse"
       gradientTransform="matrix(7912.76,-2769.94,-2769.94,-7912.76,7579.53,10848.9)"
       spreadMethod="pad"
       id="linearGradient48">
      <stop
         style="stop-opacity:1;stop-color:#0099ff"
         offset="0"
         id="stop40" />
      <stop
         style="stop-opacity:1;stop-color:#0099ff"
         offset="0.258474"
         id="stop42" />
      <stop
         style="stop-opacity:1;stop-color:#0099ff"
         offset="0.33685745"
         id="stop44" />
      <stop
         style="stop-opacity:1;stop-color:#0056ff"
         offset="1"
         id="stop46" />
    </linearGradient>
  </defs>
  <sodipodi:namedview
     id="namedview4"
     pagecolor="#ffffff"
     bordercolor="#000000"
     borderopacity="0.25"
     inkscape:showpageshadow="2"
     inkscape:pageopacity="0.0"
     inkscape:pagecheckerboard="0"
     inkscape:deskcolor="#d1d1d1" />
  <g
     id="g8"
     inkscape:groupmode="layer"
     inkscape:label="ink_ext_XXXXXX"
     transform="matrix(1.3333333,0,0,-1.3333333,0,2666.6667)">
    <g
       id="g10"
       transform="scale(0.1)">
      <g
         id="g12">
        <g
           id="g14"
           clip-path="url(#clipPath18)">
          <path
             d="m 6835.98,7245.2 857.19,634 c 489.33,361.3 978.66,722.6 1467.72,1086 l 2.35,-4.9 510.25,380.4 c 124.86,92.5 175.8,252.5 129.77,399.8 -112.44,352.4 -220.8,713.5 -321.93,1072.1 -122.12,435.1 -237.45,878 -342.51,1318.3 l 2671.98,-935.4 874.4,648.3 -4196.75,1469.1 c -127.66,44.7 -268.87,15.9 -369.16,-76 -99.06,-91.4 -139.67,-230.6 -105.23,-361.6 L 8794.95,9894.2 6231.22,7927.5 5726.08,7544.3 c -52.28,114.8 -100.26,233.3 -143.36,354.1 -1.44,4.5 -3.48,10.3 -4.93,14.9 -345.88,971.8 -375.02,2064.5 -8.62,3111.2 493.19,1408.8 1595.91,2433.6 2909.99,2883.2 20.73,7 42.37,13.7 63.11,20.6 942.1,307.5 1988.43,320.4 2994.33,-31.8 803.2,-281.1 1481,-760.3 1999.3,-1364.6 l 651.9,500.6 c -618.5,738.9 -1437.1,1324.3 -2409.5,1664.7 -1168.9,409.2 -2384.75,402.9 -3484.26,58 -3.35,-0.9 -7.02,-2.6 -10.37,-3.5 -1592.69,-516.8 -2935.1,-1744.3 -3529.39,-3442 -469.42,-1340.9 -391.81,-2742.3 116.31,-3962 47.72,-116.3 100.32,-230.2 157.17,-343.6 l -36.53,-28.9 -476.34,-364.8 -336.93,-254.1 c -113.55,-86.3 -251.36,-90.9 -347.07,-79.8 -398.26,47 -781.92,-186.7 -912.73,-554.5 -90.92,-256.9 -27.24,-481.4 41.3,-625.4 101.49,-212.3 290.54,-392.4 481.59,-459.2 25.35,-8.9 50.7,-17.8 85.15,-26.8 142.43,-31.6 280.51,-29.1 396.33,5.6 l 21.28,2.7 c 204.45,58.5 381.16,188.8 496.71,367.9 33.59,55.3 61.16,113.7 82.08,173.5 15.85,45.3 27.76,90.9 34.82,137.2 15.95,92 52.62,211.3 136.84,303.8 l 772.84,593.4 684.74,524.6 684.14,525.9"
             style="fill:url(#linearGradient28);fill-opacity:1;fill-rule:nonzero;stroke:none"
             id="path30" />
        </g>
      </g>
      <g
         id="g32">
        <g
           id="g34"
           clip-path="url(#clipPath38)">
          <path
             d="m 15310.4,7559.4 c 469.1,1340.1 390.9,2742.7 -116.6,3961.1 -49.4,119.7 -104.3,238.2 -162.1,353.9 l 453.4,347.8 c 0,0 -0.3,-0.9 0.6,-1.2 l 336.3,255.3 c 113.2,85.4 251.1,90 346.8,78.8 398.6,-46 781.9,186.8 912.7,554.6 90.9,256.9 28.5,482 -40.4,625 -102.4,212.7 -291.1,393.7 -481.3,460.2 -26.2,9.2 -51.6,18.1 -85.4,25.9 -142.5,31.5 -280.6,29.1 -396.9,-4.4 l -21.6,-3.6 c -204.5,-58.5 -380,-188.2 -496.8,-367.9 -32.6,-55.6 -60.2,-114.1 -80.8,-172.9 -15.9,-45.3 -28.1,-91.8 -36.1,-137.8 -14.7,-91.4 -51.7,-211.6 -136.8,-303.8 l -772.5,-592.5 -685.4,-526.4 -682.6,-524.4 -858.1,-633.7 c -489.6,-362.2 -979,-723.5 -1467.7,-1086 l -1.8,3.7 -511.1,-380.1 c -123.7,-91.9 -175.8,-252.5 -129.5,-398.9 112.1,-353.3 220.8,-713.5 321.9,-1072.1 122.7,-436.3 238.1,-879.2 343.1,-1319.5 L 8188.87,7636.2 7315.39,6987.5 11511.2,5518.8 c 128.6,-45.1 269.8,-16.2 369.2,76 99.3,92.3 140.6,230.3 106.1,361.3 l -780.6,2982 2562.5,1966.1 543.5,411.5 c 54.7,-119.8 105,-243.1 148.6,-368.2 351.6,-975.8 382.2,-2073 13.9,-3125.1 -213,-608.5 -539.7,-1145.4 -948,-1595.3 C 12298.1,4891.4 10346.7,4335 8528.68,4971.4 c -808.56,283 -1490.03,766.5 -2009.73,1375.4 l -685.96,-525.3 c 1.05,-1.2 2.16,-2.4 3.21,-3.7 l -24.35,-18.6 c 618.8,-738 1437.08,-1324.3 2410.43,-1665 2165.12,-758 4490.72,-87.8 5944.02,1513.3 493.3,537.5 888.2,1180.9 1144.1,1911.9"
             style="fill:url(#linearGradient48);fill-opacity:1;fill-rule:nonzero;stroke:none"
             id="path50" />
        </g>
      </g>
      <path
         d="m 6835.98,7245.2 857.19,634 c 489.33,361.3 978.66,722.6 1467.72,1086 l 2.35,-4.9 510.25,380.4 c 124.86,92.5 175.8,252.5 129.77,399.8 -112.44,352.4 -220.8,713.5 -321.93,1072.1 -122.12,435.1 -237.45,878 -342.51,1318.3 l 2671.98,-935.4 874.4,648.3 -4196.75,1469.1 c -127.66,44.7 -268.87,15.9 -369.16,-76 -99.06,-91.4 -139.67,-230.6 -105.23,-361.6 L 8794.95,9894.2 6231.22,7927.5 5726.08,7544.3 c -52.28,114.8 -100.26,233.3 -143.36,354.1 -1.44,4.5 -3.48,10.3 -4.93,14.9 -345.88,971.8 -375.02,2064.5 -8.62,3111.2 493.19,1408.8 1595.91,2433.6 2909.99,2883.2 20.73,7 42.37,13.7 63.11,20.6 942.1,307.5 1988.43,320.4 2994.33,-31.8 803.2,-281.1 1481,-760.3 1999.3,-1364.6 l 651.9,500.6 c -618.5,738.9 -1437.1,1324.3 -2409.5,1664.7 -1168.9,409.2 -2384.75,402.9 -3484.26,58 -3.35,-0.9 -7.02,-2.6 -10.37,-3.5 -1592.69,-516.8 -2935.1,-1744.3 -3529.39,-3442 -469.42,-1340.9 -391.81,-2742.3 116.31,-3962 47.72,-116.3 100.32,-230.2 157.17,-343.6 l -36.53,-28.9 -476.34,-364.8 -336.93,-254.1 c -113.55,-86.3 -251.36,-90.9 -347.07,-79.8 -398.26,47 -781.92,-186.7 -912.73,-554.5 -90.92,-256.9 -27.24,-481.4 41.3,-625.4 101.49,-212.3 290.54,-392.4 481.59,-459.2 25.35,-8.9 50.7,-17.8 85.15,-26.8 142.43,-31.6 280.51,-29.1 396.33,5.6 l 21.28,2.7 c 204.45,58.5 381.16,188.8 496.71,367.9 33.59,55.3 61.16,113.7 82.08,173.5 15.85,45.3 27.76,90.9 34.82,137.2 15.95,92 52.62,211.3 136.84,303.8 l 772.84,593.4 684.74,524.6 684.14,525.9"
         style="fill:#0259ff;fill-opacity:1;fill-rule:nonzero;stroke:none"
         id="path52" />
      <path
         d="m 15310.4,7559.4 c 469.1,1340.1 390.9,2742.7 -116.6,3961.1 -49.4,119.7 -104.3,238.2 -162.1,353.9 l 453.4,347.8 c 0,0 -0.3,-0.9 0.6,-1.2 l 336.3,255.3 c 113.2,85.4 251.1,90 346.8,78.8 398.6,-46 781.9,186.8 912.7,554.6 90.9,256.9 28.5,482 -40.4,625 -102.4,212.7 -291.1,393.7 -481.3,460.2 -26.2,9.2 -51.6,18.1 -85.4,25.9 -142.5,31.5 -280.6,29.1 -396.9,-4.4 l -21.6,-3.6 c -204.5,-58.5 -380,-188.2 -496.8,-367.9 -32.6,-55.6 -60.2,-114.1 -80.8,-172.9 -15.9,-45.3 -28.1,-91.8 -36.1,-137.8 -14.7,-91.4 -51.7,-211.6 -136.8,-303.8 l -772.5,-592.5 -685.4,-526.4 -682.6,-524.4 -858.1,-633.7 c -489.6,-362.2 -979,-723.5 -1467.7,-1086 l -1.8,3.7 -511.1,-380.1 c -123.7,-91.9 -175.8,-252.5 -129.5,-398.9 112.1,-353.3 220.8,-713.5 321.9,-1072.1 122.7,-436.3 238.1,-879.2 343.1,-1319.5 L 8188.87,7636.2 7315.39,6987.5 11511.2,5518.8 c 128.6,-45.1 269.8,-16.2 369.2,76 99.3,92.3 140.6,230.3 106.1,361.3 l -780.6,2982 2562.5,1966.1 543.5,411.5 c 54.7,-119.8 105,-243.1 148.6,-368.2 351.6,-975.8 382.2,-2073 13.9,-3125.1 -213,-608.5 -539.7,-1145.4 -948,-1595.3 C 12298.1,4891.4 10346.7,4335 8528.68,4971.4 c -808.56,283 -1490.03,766.5 -2009.73,1375.4 l -685.96,-525.3 c 1.05,-1.2 2.16,-2.4 3.21,-3.7 l -24.35,-18.6 c 618.8,-738 1437.08,-1324.3 2410.43,-1665 2165.12,-758 4490.72,-87.8 5944.02,1513.3 493.3,537.5 888.2,1180.9 1144.1,1911.9"
         style="fill:#0259ff;fill-opacity:1;fill-rule:nonzero;stroke:none"
         id="path54" />
    </g>
  </g>
</svg>
